<svg width="27" height="27" viewBox="0 0 27 27" fill="none" xmlns="http://www.w3.org/2000/svg">
<path d="M19.6879 14.217H14.219V19.686C14.219 19.976 14.1038 20.2543 13.8986 20.4594C13.6935 20.6645 13.4153 20.7797 13.1252 20.7797C12.8351 20.7797 12.5569 20.6645 12.3518 20.4594C12.1467 20.2543 12.0314 19.976 12.0314 19.686V14.217H6.56253C6.27244 14.217 5.99424 14.1018 5.78911 13.8967C5.58399 13.6916 5.46875 13.4134 5.46875 13.1233C5.46875 12.8332 5.58399 12.555 5.78911 12.3498C5.99424 12.1447 6.27244 12.0295 6.56253 12.0295H12.0314V6.56058C12.0314 6.27049 12.1467 5.99228 12.3518 5.78716C12.5569 5.58203 12.8351 5.4668 13.1252 5.4668C13.4153 5.4668 13.6935 5.58203 13.8986 5.78716C14.1038 5.99228 14.219 6.27049 14.219 6.56058V12.0295H19.6879C19.978 12.0295 20.2562 12.1447 20.4613 12.3498C20.6665 12.555 20.7817 12.8332 20.7817 13.1233C20.7817 13.4134 20.6665 13.6916 20.4613 13.8967C20.2562 14.1018 19.978 14.217 19.6879 14.217Z" fill="white"/>
</svg>
